<?xml version="1.0" encoding="UTF-8" standalone="no"?>
<svg
   width="500"
   zoomAndPan="magnify"
   viewBox="0 0 375 374.999991"
   height="500"
   preserveAspectRatio="xMidYMid meet"
   version="1.0"
   id="svg60"
   sodipodi:docname="1.svg"
   inkscape:export-filename="1.svg"
   inkscape:export-xdpi="96"
   inkscape:export-ydpi="96"
   inkscape:version="1.4.2 (f4327f4, 2025-05-13)"
   xmlns:inkscape="http://www.inkscape.org/namespaces/inkscape"
   xmlns:sodipodi="http://sodipodi.sourceforge.net/DTD/sodipodi-0.dtd"
   xmlns="http://www.w3.org/2000/svg"
   xmlns:svg="http://www.w3.org/2000/svg">
  <sodipodi:namedview
     id="namedview60"
     pagecolor="#ffffff"
     bordercolor="#000000"
     borderopacity="0.25"
     inkscape:showpageshadow="2"
     inkscape:pageopacity="0.0"
     inkscape:pagecheckerboard="0"
     inkscape:deskcolor="#d1d1d1"
     inkscape:zoom="1.27"
     inkscape:cx="250"
     inkscape:cy="249.2126"
     inkscape:window-width="1600"
     inkscape:window-height="837"
     inkscape:window-x="-8"
     inkscape:window-y="-8"
     inkscape:window-maximized="1"
     inkscape:current-layer="svg60" />
  <defs
     id="defs16">
    <g
       id="g1" />
    <clipPath
       id="6ef45cfb1b">
      <rect
         x="0"
         width="140"
         y="0"
         height="68"
         id="rect1" />
    </clipPath>
    <clipPath
       id="454ce65519">
      <path
         d="M 123.273438 166.921875 L 157.652344 166.921875 L 157.652344 226.578125 L 123.273438 226.578125 Z M 123.273438 166.921875 "
         clip-rule="nonzero"
         id="path1" />
    </clipPath>
    <clipPath
       id="4e1adb9e68">
      <path
         d="M 132.199219 226.578125 L 130.085938 226.578125 C 125.269531 226.578125 121.984375 221.707031 123.785156 217.242188 L 142.34375 171.1875 C 143.378906 168.613281 145.875 166.929688 148.648438 166.929688 L 150.847656 166.929688 C 155.667969 166.929688 158.957031 171.808594 157.148438 176.277344 L 138.5 222.332031 C 137.460938 224.898438 134.96875 226.578125 132.199219 226.578125 "
         clip-rule="nonzero"
         id="path2" />
    </clipPath>
    <clipPath
       id="e9d9f128d5">
      <path
         d="M 0.273438 0.921875 L 34.652344 0.921875 L 34.652344 60.578125 L 0.273438 60.578125 Z M 0.273438 0.921875 "
         clip-rule="nonzero"
         id="path3" />
    </clipPath>
    <clipPath
       id="631dbe3e43">
      <path
         d="M 9.199219 60.578125 L 7.085938 60.578125 C 2.269531 60.578125 -1.015625 55.707031 0.785156 51.242188 L 19.34375 5.1875 C 20.378906 2.613281 22.875 0.929688 25.648438 0.929688 L 27.847656 0.929688 C 32.667969 0.929688 35.957031 5.808594 34.148438 10.277344 L 15.5 56.332031 C 14.460938 58.898438 11.96875 60.578125 9.199219 60.578125 "
         clip-rule="nonzero"
         id="path4" />
    </clipPath>
    <clipPath
       id="b9d3438e07">
      <rect
         x="0"
         width="35"
         y="0"
         height="61"
         id="rect4" />
    </clipPath>
    <clipPath
       id="2a39a28e8b">
      <path
         d="M 102.058594 166.921875 L 136.433594 166.921875 L 136.433594 226.578125 L 102.058594 226.578125 Z M 102.058594 166.921875 "
         clip-rule="nonzero"
         id="path5" />
    </clipPath>
    <clipPath
       id="a923304546">
      <path
         d="M 110.980469 226.578125 L 108.871094 226.578125 C 104.054688 226.578125 100.765625 221.707031 102.566406 217.242188 L 121.125 171.1875 C 122.164062 168.613281 124.65625 166.929688 127.429688 166.929688 L 129.628906 166.929688 C 134.449219 166.929688 137.738281 171.808594 135.929688 176.277344 L 117.28125 222.332031 C 116.242188 224.898438 113.75 226.578125 110.980469 226.578125 "
         clip-rule="nonzero"
         id="path6" />
    </clipPath>
    <clipPath
       id="5552eba229">
      <path
         d="M 0.0585938 0.921875 L 34.433594 0.921875 L 34.433594 60.578125 L 0.0585938 60.578125 Z M 0.0585938 0.921875 "
         clip-rule="nonzero"
         id="path7" />
    </clipPath>
    <clipPath
       id="84a8b64c5a">
      <path
         d="M 8.980469 60.578125 L 6.871094 60.578125 C 2.054688 60.578125 -1.234375 55.707031 0.566406 51.242188 L 19.125 5.1875 C 20.164062 2.613281 22.65625 0.929688 25.429688 0.929688 L 27.628906 0.929688 C 32.449219 0.929688 35.738281 5.808594 33.929688 10.277344 L 15.28125 56.332031 C 14.242188 58.898438 11.75 60.578125 8.980469 60.578125 "
         clip-rule="nonzero"
         id="path8" />
    </clipPath>
    <clipPath
       id="50d24750f1">
      <rect
         x="0"
         width="35"
         y="0"
         height="61"
         id="rect8" />
    </clipPath>
    <clipPath
       id="e683a16f66">
      <path
         d="M 99.109375 166.921875 L 114.695312 166.921875 L 114.695312 182.976562 L 99.109375 182.976562 Z M 99.109375 166.921875 "
         clip-rule="nonzero"
         id="path9" />
    </clipPath>
    <clipPath
       id="2e3c29ed95">
      <path
         d="M 114.214844 171.222656 C 114.863281 172.851562 114.855469 174.664062 114.195312 176.289062 L 113.203125 178.726562 C 110.902344 184.386719 102.878906 184.371094 100.601562 178.703125 L 99.621094 176.261719 C 97.824219 171.796875 101.113281 166.929688 105.925781 166.929688 L 107.898438 166.929688 C 110.683594 166.929688 113.1875 168.632812 114.214844 171.222656 "
         clip-rule="nonzero"
         id="path10" />
    </clipPath>
    <clipPath
       id="8aa93186e8">
      <path
         d="M 0.109375 0.921875 L 15.695312 0.921875 L 15.695312 16.976562 L 0.109375 16.976562 Z M 0.109375 0.921875 "
         clip-rule="nonzero"
         id="path11" />
    </clipPath>
    <clipPath
       id="f32eb69b9a">
      <path
         d="M 15.214844 5.222656 C 15.863281 6.851562 15.855469 8.664062 15.195312 10.289062 L 14.203125 12.726562 C 11.902344 18.386719 3.878906 18.371094 1.601562 12.703125 L 0.621094 10.261719 C -1.175781 5.796875 2.113281 0.929688 6.925781 0.929688 L 8.898438 0.929688 C 11.683594 0.929688 14.1875 2.632812 15.214844 5.222656 "
         clip-rule="nonzero"
         id="path12" />
    </clipPath>
    <clipPath
       id="96db863cdb">
      <rect
         x="0"
         width="16"
         y="0"
         height="17"
         id="rect12" />
    </clipPath>
    <clipPath
       id="1552cb45c0">
      <path
         d="M 77.625 166.921875 L 103.917969 166.921875 L 103.917969 209.4375 L 77.625 209.4375 Z M 77.625 166.921875 "
         clip-rule="nonzero"
         id="path13" />
    </clipPath>
    <clipPath
       id="e073b443d5">
      <path
         d="M 86.433594 166.929688 L 84.441406 166.929688 C 79.625 166.929688 76.335938 171.804688 78.140625 176.273438 L 89.8125 205.1875 C 92.105469 210.867188 100.15625 210.851562 102.429688 205.164062 L 103.429688 202.648438 C 104.082031 201.023438 104.078125 199.203125 103.417969 197.578125 L 92.734375 171.175781 C 91.695312 168.609375 89.203125 166.929688 86.433594 166.929688 "
         clip-rule="nonzero"
         id="path14" />
    </clipPath>
    <clipPath
       id="06fcf398dd">
      <path
         d="M 0.625 0.921875 L 26.917969 0.921875 L 26.917969 43.4375 L 0.625 43.4375 Z M 0.625 0.921875 "
         clip-rule="nonzero"
         id="path15" />
    </clipPath>
    <clipPath
       id="ea747afd71">
      <path
         d="M 9.433594 0.929688 L 7.441406 0.929688 C 2.625 0.929688 -0.664062 5.804688 1.140625 10.273438 L 12.8125 39.1875 C 15.105469 44.867188 23.15625 44.851562 25.429688 39.164062 L 26.429688 36.648438 C 27.082031 35.023438 27.078125 33.203125 26.417969 31.578125 L 15.734375 5.175781 C 14.695312 2.609375 12.203125 0.929688 9.433594 0.929688 "
         clip-rule="nonzero"
         id="path16" />
    </clipPath>
    <clipPath
       id="5763b28d1d">
      <rect
         x="0"
         width="27"
         y="0"
         height="44"
         id="rect16" />
    </clipPath>
  </defs>
  <g
     clip-path="url(#454ce65519)"
     id="g42">
    <g
       clip-path="url(#4e1adb9e68)"
       id="g41">
      <g
         transform="matrix(1, 0, 0, 1, 123, 166)"
         id="g40">
        <g
           clip-path="url(#b9d3438e07)"
           id="g39">
          <g
             clip-path="url(#e9d9f128d5)"
             id="g38">
            <g
               clip-path="url(#631dbe3e43)"
               id="g37">
              <path
                 fill="#008cff"
                 d="M 34.722656 60.648438 L -45.433594 60.648438 L -45.433594 0.863281 L 34.722656 0.863281 Z M 34.722656 60.648438 "
                 fill-opacity="1"
                 fill-rule="nonzero"
                 id="path36" />
            </g>
          </g>
        </g>
      </g>
    </g>
  </g>
  <g
     clip-path="url(#2a39a28e8b)"
     id="g48">
    <g
       clip-path="url(#a923304546)"
       id="g47">
      <g
         transform="matrix(1, 0, 0, 1, 102, 166)"
         id="g46">
        <g
           clip-path="url(#50d24750f1)"
           id="g45">
          <g
             clip-path="url(#5552eba229)"
             id="g44">
            <g
               clip-path="url(#84a8b64c5a)"
               id="g43">
              <path
                 fill="#008cff"
                 d="M 55.722656 60.648438 L -24.433594 60.648438 L -24.433594 0.863281 L 55.722656 0.863281 Z M 55.722656 60.648438 "
                 fill-opacity="1"
                 fill-rule="nonzero"
                 id="path42" />
            </g>
          </g>
        </g>
      </g>
    </g>
  </g>
  <g
     clip-path="url(#e683a16f66)"
     id="g54">
    <g
       clip-path="url(#2e3c29ed95)"
       id="g53">
      <g
         transform="matrix(1, 0, 0, 1, 99, 166)"
         id="g52">
        <g
           clip-path="url(#96db863cdb)"
           id="g51">
          <g
             clip-path="url(#8aa93186e8)"
             id="g50">
            <g
               clip-path="url(#f32eb69b9a)"
               id="g49">
              <path
                 fill="#01dbff"
                 d="M 58.722656 60.648438 L -21.433594 60.648438 L -21.433594 0.863281 L 58.722656 0.863281 Z M 58.722656 60.648438 "
                 fill-opacity="1"
                 fill-rule="nonzero"
                 id="path48" />
            </g>
          </g>
        </g>
      </g>
    </g>
  </g>
  <g
     clip-path="url(#1552cb45c0)"
     id="g60">
    <g
       clip-path="url(#e073b443d5)"
       id="g59">
      <g
         transform="matrix(1, 0, 0, 1, 77, 166)"
         id="g58">
        <g
           clip-path="url(#5763b28d1d)"
           id="g57">
          <g
             clip-path="url(#06fcf398dd)"
             id="g56">
            <g
               clip-path="url(#ea747afd71)"
               id="g55">
              <path
                 fill="#01dbff"
                 d="M 80.722656 60.648438 L 0.566406 60.648438 L 0.566406 0.863281 L 80.722656 0.863281 Z M 80.722656 60.648438 "
                 fill-opacity="1"
                 fill-rule="nonzero"
                 id="path54" />
            </g>
          </g>
        </g>
      </g>
    </g>
  </g>
  <text
     xml:space="preserve"
     style="font-size:48px;text-align:start;writing-mode:lr-tb;direction:ltr;text-anchor:start;fill:#000000;stroke-width:0.75"
     x="162.40158"
     y="221.4567"
     id="text1"><tspan
       sodipodi:role="line"
       id="tspan1"
       style="font-size:48px;stroke-width:0.75"
       x="162.40158"
       y="221.4567">Wesal</tspan></text>
</svg>
